<svg xmlns="http://www.w3.org/2000/svg" viewBox="0 0 512 512" role="img" aria-label="SIT">
  <rect width="512" height="512" rx="96" fill="#020617"/>
  <path d="M128 132h256a32 32 0 0 1 32 32v184a32 32 0 0 1-32 32H128a32 32 0 0 1-32-32V164a32 32 0 0 1 32-32Z" fill="#1d4ed8"/>
  <path d="M150 178h212v44H150v-44Zm0 76h130v44H150v-44Zm0 76h182v28H150v-28Z" fill="#f8fafc"/>
  <circle cx="372" cy="292" r="42" fill="#22c55e"/>
  <path d="m352 292 14 14 30-34" fill="none" stroke="#f8fafc" stroke-width="14" stroke-linecap="round" stroke-linejoin="round"/>
  <path d="M118 408h276" stroke="#38bdf8" stroke-width="18" stroke-linecap="round"/>
</svg>
